<?xml version="1.0" encoding="UTF-8" standalone="no"?>
<svg
   xmlns:dc="http://purl.org/dc/elements/1.1/"
   xmlns:cc="http://creativecommons.org/ns#"
   xmlns:rdf="http://www.w3.org/1999/02/22-rdf-syntax-ns#"
   xmlns:svg="http://www.w3.org/2000/svg"
   xmlns="http://www.w3.org/2000/svg"
   xmlns:sodipodi="http://sodipodi.sourceforge.net/DTD/sodipodi-0.dtd"
   xmlns:inkscape="http://www.inkscape.org/namespaces/inkscape"
   viewBox="0.0 0.0 348.0 348.0"
   fill="none"
   version="1.1"
   id="svg2417"
   sodipodi:docname="Forget Me Later.svg"
   inkscape:version="0.92.4 (5da689c313, 2019-01-14)">
  <metadata
     id="metadata2423">
    <rdf:RDF>
      <cc:Work
         rdf:about="">
        <dc:format>image/svg+xml</dc:format>
        <dc:type
           rdf:resource="http://purl.org/dc/dcmitype/StillImage" />
        <dc:title></dc:title>
      </cc:Work>
    </rdf:RDF>
  </metadata>
  <defs
     id="defs2421" />
  <sodipodi:namedview
     pagecolor="#ffffff"
     bordercolor="#666666"
     borderopacity="1"
     objecttolerance="10"
     gridtolerance="10"
     guidetolerance="10"
     inkscape:pageopacity="0"
     inkscape:pageshadow="2"
     inkscape:window-width="1366"
     inkscape:window-height="705"
     id="namedview2419"
     showgrid="false"
     inkscape:snap-global="false"
     inkscape:zoom="0.67816092"
     inkscape:cx="174"
     inkscape:cy="174"
     inkscape:window-x="-8"
     inkscape:window-y="-8"
     inkscape:window-maximized="1"
     inkscape:current-layer="svg2417" />
  <path
     d="M5.079 5.776h336.913v337.67H5.08z"
     stroke-width="2"
     stroke="#000"
     id="path2413" />
  <path
     d="M282.734 40.554c0-8.376 6.966-15.165 15.56-15.165 4.126 0 8.084 1.597 11.001 4.441 2.918 2.844 4.558 6.702 4.558 10.724 0 8.376-6.966 15.165-15.56 15.165-8.593 0-15.559-6.79-15.559-15.165z"
     stroke-width="2"
     stroke="#000"
     id="path2415" />
  <path
     style="fill:#ffffff;fill-opacity:1;stroke:#000000;stroke-width:1.75862074;stroke-miterlimit:4;stroke-dasharray:none;stroke-opacity:1"
     d="m 17.997964,22.879311 h 57.050829 c 5e-6,0 8e-6,3e-6 8e-6,8e-6 v 57.050829 c 0,5e-6 -3e-6,9e-6 -8e-6,9e-6 H 17.997964 c -5e-6,0 -9e-6,-4e-6 -9e-6,-9e-6 V 22.879319 c 0,-5e-6 4e-6,-8e-6 9e-6,-8e-6 z"
     id="rect851" />
  <path
     style="fill:#ffffff;fill-opacity:1;stroke:#000000;stroke-width:1.75862074;stroke-miterlimit:4;stroke-dasharray:none;stroke-opacity:1"
     d="M 91.442726,77.709518 A 18.152542,18.152542 0 0 1 73.334856,95.862006 18.152542,18.152542 0 0 1 55.137862,77.798861 18.152542,18.152542 0 0 1 73.15617,59.557471 18.152542,18.152542 0 0 1 91.441847,77.530835"
     id="path853" />
  <path
     style="fill:#ffffff;fill-opacity:1;stroke:#000000;stroke-width:1.75862074;stroke-miterlimit:4;stroke-dasharray:none;stroke-opacity:1"
     d="M 84.87367,77.645226 A 11.669492,11.669492 0 0 1 73.232895,89.314682 11.669492,11.669492 0 0 1 61.534827,77.70266 11.669492,11.669492 0 0 1 73.118026,65.976052 11.669492,11.669492 0 0 1 84.873104,77.530357"
     id="path855" />
  <g
     aria-label="1"
     style="font-style:normal;font-variant:normal;font-weight:500;font-stretch:normal;font-size:46.89654922px;line-height:1.25;font-family:'Gill Sans Nova';-inkscape-font-specification:'Gill Sans Nova Medium';letter-spacing:0px;word-spacing:0px;fill:#000000;fill-opacity:1;stroke:none;stroke-width:0.87931037"
     id="text859">
    <path
       d="M 46.211644,65.667458 V 41.142944 l -5.770474,4.648437 -2.724946,-3.297414 11.357758,-9.228178 h 1.717403 v 32.401669 z"
       style="stroke-width:0.87931037"
       id="path1090" />
  </g>
  <path
     style="fill:#ffffff;fill-opacity:1;stroke:#000000;stroke-width:1.75862074;stroke-miterlimit:4;stroke-dasharray:none;stroke-opacity:1"
     d="m 98.048821,22.879311 h 57.050829 c 1e-5,0 1e-5,3e-6 1e-5,8e-6 v 57.050829 c 0,5e-6 0,9e-6 -1e-5,9e-6 H 98.048821 c -4e-6,0 -8e-6,-4e-6 -8e-6,-9e-6 V 22.879319 c 0,-5e-6 4e-6,-8e-6 8e-6,-8e-6 z"
     id="rect861" />
  <path
     style="fill:#ffffff;fill-opacity:1;stroke:#000000;stroke-width:1.75862074;stroke-miterlimit:4;stroke-dasharray:none;stroke-opacity:1"
     d="m 171.49358,77.709518 a 18.152542,18.152542 0 0 1 -18.10787,18.152488 18.152542,18.152542 0 0 1 -18.197,-18.063145 18.152542,18.152542 0 0 1 18.01831,-18.24139 18.152542,18.152542 0 0 1 18.28568,17.973364"
     id="path863" />
  <path
     style="fill:#ffffff;fill-opacity:1;stroke:#000000;stroke-width:1.75862074;stroke-miterlimit:4;stroke-dasharray:none;stroke-opacity:1"
     d="M 164.92451,77.645226 A 11.669492,11.669492 0 0 1 153.28374,89.314682 11.669492,11.669492 0 0 1 141.58567,77.70266 11.669492,11.669492 0 0 1 153.16887,65.976052 11.669492,11.669492 0 0 1 164.92395,77.530357"
     id="path865" />
  <g
     aria-label="2"
     style="font-style:normal;font-variant:normal;font-weight:500;font-stretch:normal;font-size:46.89654922px;line-height:1.25;font-family:'Gill Sans Nova';-inkscape-font-specification:'Gill Sans Nova Medium';letter-spacing:0px;word-spacing:0px;fill:#000000;fill-opacity:1;stroke:none;stroke-width:0.87931037"
     id="text869">
    <path
       d="m 134.46023,43.112232 q 0,4.07597 -2.58756,8.266433 -2.56465,4.167565 -6.45743,8.838901 -0.18319,0.297683 -0.43508,0.52667 -0.22898,0.228987 -0.41217,0.503771 h 12.18211 v 4.419451 h -20.24246 v -0.320582 l 0.82435,-0.938847 q 4.51105,-4.740032 8.51832,-10.350215 4.00728,-5.610183 4.00728,-10.281519 0,-2.266972 -0.93885,-3.595097 -0.93885,-1.328125 -2.19828,-1.854795 -1.25942,-0.52667 -2.38146,-0.52667 -1.96929,0 -3.84698,1.167834 -1.8777,1.144935 -3.34322,3.160021 v -5.816271 q 3.6638,-3.045528 7.73977,-3.045528 2.72494,0 4.90032,1.259429 2.17538,1.259429 3.41191,3.526401 1.25943,2.244073 1.25943,5.060613 z"
       style="stroke-width:0.87931037"
       id="path1084" />
  </g>
  <path
     style="fill:#ffffff;fill-opacity:1;stroke:#000000;stroke-width:1.75862074;stroke-miterlimit:4;stroke-dasharray:none;stroke-opacity:1"
     d="m 178.09966,22.879311 h 57.05083 c 1e-5,0 1e-5,3e-6 1e-5,8e-6 v 57.050829 c 0,5e-6 0,9e-6 -1e-5,9e-6 h -57.05083 c 0,0 0,-4e-6 0,-9e-6 V 22.879319 c 0,-5e-6 0,-8e-6 0,-8e-6 z"
     id="rect871" />
  <path
     style="fill:#ffffff;fill-opacity:1;stroke:#000000;stroke-width:1.75862074;stroke-miterlimit:4;stroke-dasharray:none;stroke-opacity:1"
     d="m 251.54442,77.709518 a 18.152542,18.152542 0 0 1 -18.10787,18.152488 18.152542,18.152542 0 0 1 -18.197,-18.063145 18.152542,18.152542 0 0 1 18.01831,-18.24139 18.152542,18.152542 0 0 1 18.28568,17.973364"
     id="path873" />
  <path
     style="fill:#ffffff;fill-opacity:1;stroke:#000000;stroke-width:1.75862074;stroke-miterlimit:4;stroke-dasharray:none;stroke-opacity:1"
     d="M 244.97535,77.645226 A 11.669492,11.669492 0 0 1 233.33458,89.314682 11.669492,11.669492 0 0 1 221.63651,77.70266 11.669492,11.669492 0 0 1 233.21971,65.976052 11.669492,11.669492 0 0 1 244.97479,77.530357"
     id="path875" />
  <g
     aria-label="3"
     style="font-style:normal;font-variant:normal;font-weight:500;font-stretch:normal;font-size:46.89654922px;line-height:1.25;font-family:'Gill Sans Nova';-inkscape-font-specification:'Gill Sans Nova Medium';letter-spacing:0px;word-spacing:0px;fill:#000000;fill-opacity:1;stroke:none;stroke-width:0.87931037"
     id="text879">
    <path
       d="m 210.25192,48.791111 q 2.15248,0.732759 3.36611,2.793643 1.21363,2.037984 1.21363,4.785829 0,2.862338 -1.30523,5.083513 -1.30522,2.198275 -3.5493,3.411907 -2.22117,1.213631 -4.90032,1.213631 -3.80119,0 -7.1215,-1.808997 v -4.991918 q 3.5264,2.266972 6.98411,2.266972 2.31277,0 3.70959,-1.282328 1.39682,-1.305226 1.39682,-3.732489 0,-2.541756 -1.7632,-3.89278 -1.7403,-1.373922 -4.87743,-1.373922 V 47.05081 q 6.41164,0 6.41164,-4.831627 0,-2.060884 -1.51131,-3.411907 -1.48842,-1.373923 -4.00728,-1.373923 -1.37392,0 -2.65625,0.389278 -1.28232,0.36638 -2.88523,1.167834 v -4.373652 q 2.77074,-1.351024 6.09105,-1.351024 4.37366,0 6.91541,2.266972 2.56466,2.266972 2.56466,6.320043 0,2.47306 -1.00755,4.167564 -1.00754,1.694504 -3.06842,2.770743 z"
       style="stroke-width:0.87931037"
       id="path1078" />
  </g>
  <path
     style="fill:#ffffff;fill-opacity:1;stroke:#000000;stroke-width:1.75862074;stroke-miterlimit:4;stroke-dasharray:none;stroke-opacity:1"
     d="m 17.997964,102.87931 h 57.050829 c 5e-6,0 8e-6,0 8e-6,1e-5 v 57.05083 c 0,0 -3e-6,1e-5 -8e-6,1e-5 H 17.997964 c -5e-6,0 -9e-6,-1e-5 -9e-6,-1e-5 v -57.05083 c 0,-1e-5 4e-6,-1e-5 9e-6,-1e-5 z"
     id="rect881" />
  <path
     style="fill:#ffffff;fill-opacity:1;stroke:#000000;stroke-width:1.75862074;stroke-miterlimit:4;stroke-dasharray:none;stroke-opacity:1"
     d="M 91.442726,157.70952 A 18.152542,18.152542 0 0 1 73.334856,175.86201 18.152542,18.152542 0 0 1 55.137862,157.79886 18.152542,18.152542 0 0 1 73.15617,139.55747 18.152542,18.152542 0 0 1 91.441847,157.53083"
     id="path883" />
  <path
     style="fill:#ffffff;fill-opacity:1;stroke:#000000;stroke-width:1.75862074;stroke-miterlimit:4;stroke-dasharray:none;stroke-opacity:1"
     d="M 84.87367,157.64523 A 11.669492,11.669492 0 0 1 73.232895,169.31469 11.669492,11.669492 0 0 1 61.534827,157.70267 11.669492,11.669492 0 0 1 73.118026,145.97606 11.669492,11.669492 0 0 1 84.873104,157.53037"
     id="path885" />
  <g
     aria-label="4"
     style="font-style:normal;font-variant:normal;font-weight:500;font-stretch:normal;font-size:46.89654922px;line-height:1.25;font-family:'Gill Sans Nova';-inkscape-font-specification:'Gill Sans Nova Medium';letter-spacing:0px;word-spacing:0px;fill:#000000;fill-opacity:1;stroke:none;stroke-width:0.87931037"
     id="text889">
    <path
       d="m 56.951137,131.21837 v 3.93857 h -3.572198 v 10.51051 H 48.913691 V 135.15694 H 35.380556 v -2.01508 l 16.120689,-19.87608 h 1.877694 v 17.95259 z m -8.037446,0 v -9.27398 l -7.396282,9.27398 z"
       style="stroke-width:0.87931037"
       id="path1072" />
  </g>
  <path
     style="fill:#ffffff;fill-opacity:1;stroke:#000000;stroke-width:1.75862074;stroke-miterlimit:4;stroke-dasharray:none;stroke-opacity:1"
     d="m 98.048821,102.87931 h 57.050829 c 1e-5,0 1e-5,0 1e-5,1e-5 v 57.05083 c 0,0 0,1e-5 -1e-5,1e-5 H 98.048821 c -4e-6,0 -8e-6,-1e-5 -8e-6,-1e-5 v -57.05083 c 0,-1e-5 4e-6,-1e-5 8e-6,-1e-5 z"
     id="rect891" />
  <path
     style="fill:#ffffff;fill-opacity:1;stroke:#000000;stroke-width:1.75862074;stroke-miterlimit:4;stroke-dasharray:none;stroke-opacity:1"
     d="m 171.49358,157.70952 a 18.152542,18.152542 0 0 1 -18.10787,18.15249 18.152542,18.152542 0 0 1 -18.197,-18.06315 18.152542,18.152542 0 0 1 18.01831,-18.24139 18.152542,18.152542 0 0 1 18.28568,17.97336"
     id="path893" />
  <path
     style="fill:#ffffff;fill-opacity:1;stroke:#000000;stroke-width:1.75862074;stroke-miterlimit:4;stroke-dasharray:none;stroke-opacity:1"
     d="m 164.92451,157.64523 a 11.669492,11.669492 0 0 1 -11.64077,11.66946 11.669492,11.669492 0 0 1 -11.69807,-11.61202 11.669492,11.669492 0 0 1 11.5832,-11.72661 11.669492,11.669492 0 0 1 11.75508,11.55431"
     id="path895" />
  <g
     aria-label="5"
     style="font-style:normal;font-variant:normal;font-weight:500;font-stretch:normal;font-size:46.89654922px;line-height:1.25;font-family:'Gill Sans Nova';-inkscape-font-specification:'Gill Sans Nova Medium';letter-spacing:0px;word-spacing:0px;fill:#000000;fill-opacity:1;stroke:none;stroke-width:0.87931037"
     id="text899">
    <path
       d="m 123.81233,117.75393 v 8.08324 h 0.89305 q 3.18292,0 5.61018,1.28233 2.45016,1.28233 3.77829,3.5722 1.35102,2.26697 1.35102,5.12931 0,2.95393 -1.35102,5.3125 -1.32813,2.33566 -3.75539,3.64089 -2.40436,1.30523 -5.54149,1.30523 -3.75539,0 -7.55657,-1.96929 v -4.71714 q 1.60291,1.03045 3.38901,1.64871 1.7861,0.59537 3.41191,0.59537 1.92349,0 3.4577,-0.77856 1.55711,-0.77855 2.42726,-2.10668 0.87015,-1.32812 0.87015,-2.93103 0,-2.15248 -1.28232,-3.48061 -1.28233,-1.35102 -2.99973,-1.90059 -1.71741,-0.57247 -3.06843,-0.57247 -0.98465,0 -2.24407,0.1374 -1.23653,0.13739 -1.55712,0.32058 v -16.64736 h 14.1972 v 4.07597 z"
       style="stroke-width:0.87931037"
       id="path1066" />
  </g>
  <path
     style="fill:#ffffff;fill-opacity:1;stroke:#000000;stroke-width:1.75862074;stroke-miterlimit:4;stroke-dasharray:none;stroke-opacity:1"
     d="m 178.09966,102.87931 h 57.05083 c 1e-5,0 1e-5,0 1e-5,1e-5 v 57.05083 c 0,0 0,1e-5 -1e-5,1e-5 h -57.05083 c 0,0 0,-1e-5 0,-1e-5 v -57.05083 c 0,-1e-5 0,-1e-5 0,-1e-5 z"
     id="rect901" />
  <path
     style="fill:#ffffff;fill-opacity:1;stroke:#000000;stroke-width:1.75862074;stroke-miterlimit:4;stroke-dasharray:none;stroke-opacity:1"
     d="m 251.54442,157.70952 a 18.152542,18.152542 0 0 1 -18.10787,18.15249 18.152542,18.152542 0 0 1 -18.197,-18.06315 18.152542,18.152542 0 0 1 18.01831,-18.24139 18.152542,18.152542 0 0 1 18.28568,17.97336"
     id="path903" />
  <path
     style="fill:#ffffff;fill-opacity:1;stroke:#000000;stroke-width:1.75862074;stroke-miterlimit:4;stroke-dasharray:none;stroke-opacity:1"
     d="m 244.97535,157.64523 a 11.669492,11.669492 0 0 1 -11.64077,11.66946 11.669492,11.669492 0 0 1 -11.69807,-11.61202 11.669492,11.669492 0 0 1 11.5832,-11.72661 11.669492,11.669492 0 0 1 11.75508,11.55431"
     id="path905" />
  <g
     aria-label="6"
     style="font-style:normal;font-variant:normal;font-weight:500;font-stretch:normal;font-size:46.89654922px;line-height:1.25;font-family:'Gill Sans Nova';-inkscape-font-specification:'Gill Sans Nova Medium';letter-spacing:0px;word-spacing:0px;fill:#000000;fill-opacity:1;stroke:none;stroke-width:0.87931037"
     id="text909">
    <path
       d="m 202.64955,128.49342 q 2.38146,-1.30523 5.198,-1.30523 2.35857,0 4.39655,1.09914 2.03799,1.09914 3.27452,3.20582 1.23653,2.08378 1.23653,4.94612 0,2.65625 -1.19073,4.87743 -1.19074,2.19827 -3.41191,3.4806 -2.19828,1.28233 -5.01482,1.28233 -3.04552,0 -5.3125,-1.39682 -2.26697,-1.39683 -3.5493,-4.00728 -1.25942,-2.61045 -1.25942,-6.11395 0,-6.25135 3.22871,-11.60965 3.25162,-5.38119 9.57166,-9.68615 l 2.77075,3.5035 q -3.5722,2.26698 -6.20555,5.19801 -2.61046,2.93103 -3.73249,6.52613 z m 4.55684,13.32705 q 2.28987,0 3.61799,-1.37392 1.35103,-1.39683 1.35103,-3.86989 0,-2.40436 -1.53421,-3.77828 -1.53422,-1.39682 -3.96148,-1.39682 -1.87769,0 -3.4806,0.84725 -1.58001,0.84725 -1.58001,3.38901 0,2.15248 0.89304,3.5493 0.89305,1.37392 2.17538,2.01508 1.28233,0.61827 2.51886,0.61827 z"
       style="stroke-width:0.87931037"
       id="path1060" />
  </g>
  <path
     style="fill:#ffffff;fill-opacity:1;stroke:#000000;stroke-width:1.75862074;stroke-miterlimit:4;stroke-dasharray:none;stroke-opacity:1"
     d="m 17.997964,182.8793 h 57.050829 c 5e-6,0 8e-6,1e-5 8e-6,1e-5 v 57.05083 c 0,1e-5 -3e-6,1e-5 -8e-6,1e-5 H 17.997964 c -5e-6,0 -9e-6,0 -9e-6,-1e-5 v -57.05083 c 0,0 4e-6,-1e-5 9e-6,-1e-5 z"
     id="rect911" />
  <path
     style="fill:#ffffff;fill-opacity:1;stroke:#000000;stroke-width:1.75862074;stroke-miterlimit:4;stroke-dasharray:none;stroke-opacity:1"
     d="M 91.442726,237.70952 A 18.152542,18.152542 0 0 1 73.334856,255.86201 18.152542,18.152542 0 0 1 55.137862,237.79886 18.152542,18.152542 0 0 1 73.15617,219.55747 18.152542,18.152542 0 0 1 91.441847,237.53083"
     id="path913" />
  <path
     style="fill:#ffffff;fill-opacity:1;stroke:#000000;stroke-width:1.75862074;stroke-miterlimit:4;stroke-dasharray:none;stroke-opacity:1"
     d="M 84.87367,237.64523 A 11.669492,11.669492 0 0 1 73.232895,249.31469 11.669492,11.669492 0 0 1 61.534827,237.70267 11.669492,11.669492 0 0 1 73.118026,225.97606 11.669492,11.669492 0 0 1 84.873104,237.53037"
     id="path915" />
  <g
     aria-label="7"
     style="font-style:normal;font-variant:normal;font-weight:500;font-stretch:normal;font-size:46.89654922px;line-height:1.25;font-family:'Gill Sans Nova';-inkscape-font-specification:'Gill Sans Nova Medium';letter-spacing:0px;word-spacing:0px;fill:#000000;fill-opacity:1;stroke:none;stroke-width:0.87931037"
     id="text919">
    <path
       d="m 43.349305,226.07963 -4.075969,-1.7632 11.724137,-26.26482 H 37.143756 v -4.37365 H 57.77549 v 0.18319 z"
       style="stroke-width:0.87931037"
       id="path1054" />
  </g>
  <path
     style="fill:#ffffff;fill-opacity:1;stroke:#000000;stroke-width:1.75862074;stroke-miterlimit:4;stroke-dasharray:none;stroke-opacity:1"
     d="m 98.048821,182.8793 h 57.050829 c 1e-5,0 1e-5,1e-5 1e-5,1e-5 v 57.05083 c 0,1e-5 0,1e-5 -1e-5,1e-5 H 98.048821 c -4e-6,0 -8e-6,0 -8e-6,-1e-5 v -57.05083 c 0,0 4e-6,-1e-5 8e-6,-1e-5 z"
     id="rect921" />
  <path
     style="fill:#ffffff;fill-opacity:1;stroke:#000000;stroke-width:1.75862074;stroke-miterlimit:4;stroke-dasharray:none;stroke-opacity:1"
     d="m 171.49358,237.70952 a 18.152542,18.152542 0 0 1 -18.10787,18.15249 18.152542,18.152542 0 0 1 -18.197,-18.06315 18.152542,18.152542 0 0 1 18.01831,-18.24139 18.152542,18.152542 0 0 1 18.28568,17.97336"
     id="path923" />
  <path
     style="fill:#ffffff;fill-opacity:1;stroke:#000000;stroke-width:1.75862074;stroke-miterlimit:4;stroke-dasharray:none;stroke-opacity:1"
     d="m 164.92451,237.64523 a 11.669492,11.669492 0 0 1 -11.64077,11.66946 11.669492,11.669492 0 0 1 -11.69807,-11.61202 11.669492,11.669492 0 0 1 11.5832,-11.72661 11.669492,11.669492 0 0 1 11.75508,11.55431"
     id="path925" />
  <g
     aria-label="8"
     style="font-style:normal;font-variant:normal;font-weight:500;font-stretch:normal;font-size:46.89654922px;line-height:1.25;font-family:'Gill Sans Nova';-inkscape-font-specification:'Gill Sans Nova Medium';letter-spacing:0px;word-spacing:0px;fill:#000000;fill-opacity:1;stroke:none;stroke-width:0.87931037"
     id="text929">
    <path
       d="m 136.38372,202.21918 q 0,2.15247 -0.93885,3.91567 -0.93885,1.7632 -3.04553,3.20582 4.44235,2.54176 4.44235,7.55658 0,2.63335 -1.30522,4.74003 -1.30523,2.10668 -3.6409,3.27451 -2.31277,1.16784 -5.2209,1.16784 -3.04553,0 -5.3812,-1.30523 -2.31277,-1.30523 -3.5951,-3.41191 -1.28232,-2.12958 -1.28232,-4.46524 0,-2.33567 1.14493,-4.32786 1.14494,-1.99219 3.38901,-3.22872 -2.15248,-1.7861 -2.97683,-3.4348 -0.82436,-1.67161 -0.82436,-3.6409 0,-2.54175 1.32813,-4.60264 1.35102,-2.06088 3.5951,-3.22871 2.26697,-1.16784 4.78583,-1.16784 2.63335,0 4.80872,1.16784 2.17538,1.16783 3.43481,3.22871 1.28233,2.06089 1.28233,4.55685 z m -9.57166,4.96901 q 1.96929,0 3.4806,-1.32812 1.53422,-1.35102 1.53422,-3.45771 0,-2.06088 -1.44262,-3.4119 -1.41972,-1.37392 -3.6638,-1.37392 -2.15247,0 -3.61799,1.35102 -1.44262,1.32812 -1.44262,3.38901 0,2.10668 1.55711,3.4806 1.58001,1.35102 3.5951,1.35102 z m -0.0916,14.49489 q 2.49596,0 3.98438,-1.41972 1.51131,-1.44262 1.51131,-3.6409 0,-2.15248 -1.55711,-3.5493 -1.53421,-1.41972 -4.12177,-1.41972 -2.49595,0 -4.00727,1.46552 -1.48842,1.44262 -1.48842,3.5493 0,2.15248 1.58002,3.5951 1.58001,1.41972 4.09886,1.41972 z"
       style="stroke-width:0.87931037"
       id="path1048" />
  </g>
  <path
     style="fill:#ffffff;fill-opacity:1;stroke:#000000;stroke-width:1.75862074;stroke-miterlimit:4;stroke-dasharray:none;stroke-opacity:1"
     d="m 178.09966,182.8793 h 57.05083 c 1e-5,0 1e-5,1e-5 1e-5,1e-5 v 57.05083 c 0,1e-5 0,1e-5 -1e-5,1e-5 h -57.05083 c 0,0 0,0 0,-1e-5 v -57.05083 c 0,0 0,-1e-5 0,-1e-5 z"
     id="rect931" />
  <path
     style="fill:#ffffff;fill-opacity:1;stroke:#000000;stroke-width:1.75862074;stroke-miterlimit:4;stroke-dasharray:none;stroke-opacity:1"
     d="m 251.54442,237.70952 a 18.152542,18.152542 0 0 1 -18.10787,18.15249 18.152542,18.152542 0 0 1 -18.197,-18.06315 18.152542,18.152542 0 0 1 18.01831,-18.24139 18.152542,18.152542 0 0 1 18.28568,17.97336"
     id="path933" />
  <path
     style="fill:#ffffff;fill-opacity:1;stroke:#000000;stroke-width:1.75862074;stroke-miterlimit:4;stroke-dasharray:none;stroke-opacity:1"
     d="m 244.97535,237.64523 a 11.669492,11.669492 0 0 1 -11.64077,11.66946 11.669492,11.669492 0 0 1 -11.69807,-11.61202 11.669492,11.669492 0 0 1 11.5832,-11.72661 11.669492,11.669492 0 0 1 11.75508,11.55431"
     id="path935" />
  <g
     aria-label="9"
     style="font-style:normal;font-variant:normal;font-weight:500;font-stretch:normal;font-size:46.89654922px;line-height:1.25;font-family:'Gill Sans Nova';-inkscape-font-specification:'Gill Sans Nova Medium';letter-spacing:0px;word-spacing:0px;fill:#000000;fill-opacity:1;stroke:none;stroke-width:0.87931037"
     id="text939">
    <path
       d="m 216.57196,204.80673 q 0,3.84698 -1.62581,7.90005 -1.60291,4.05307 -4.53394,7.57947 -2.93104,3.50351 -6.68642,5.79338 l -2.81654,-3.36611 q 3.89278,-2.54176 6.41163,-5.65598 2.54176,-3.11423 3.34321,-6.34294 -2.38146,1.39682 -5.10641,1.39682 -2.63335,0 -4.64843,-1.23653 -2.01509,-1.23653 -3.13713,-3.34321 -1.12203,-2.12958 -1.12203,-4.55685 0,-2.81654 1.28232,-5.01481 1.28233,-2.22118 3.48061,-3.45771 2.22117,-1.23653 4.80872,-1.23653 2.83944,0 5.19801,1.37392 2.38147,1.35103 3.75539,3.96148 1.39682,2.58755 1.39682,6.20555 z m -10.51051,3.09132 q 2.58756,0 4.23626,-0.87015 1.67161,-0.87015 1.67161,-3.36611 0,-2.51885 -1.55711,-4.35075 -1.53422,-1.8319 -4.14467,-1.8319 -2.26697,0 -3.66379,1.44262 -1.37392,1.41972 -1.37392,3.86988 0,2.10668 1.35102,3.618 1.37392,1.48841 3.4806,1.48841 z"
       style="stroke-width:0.87931037"
       id="path1042" />
  </g>
  <path
     style="fill:#ffffff;fill-opacity:1;stroke:#000000;stroke-width:1.75862074;stroke-miterlimit:4;stroke-dasharray:none;stroke-opacity:1"
     d="m 259.20136,182.8793 h 57.05083 c 1e-5,0 1e-5,1e-5 1e-5,1e-5 v 57.05083 c 0,1e-5 0,1e-5 -1e-5,1e-5 h -57.05083 c 0,0 -1e-5,0 -1e-5,-1e-5 v -57.05083 c 0,0 1e-5,-1e-5 1e-5,-1e-5 z"
     id="rect941" />
  <path
     style="fill:#ffffff;fill-opacity:1;stroke:#000000;stroke-width:1.75862074;stroke-miterlimit:4;stroke-dasharray:none;stroke-opacity:1"
     d="m 332.6461,237.70952 a 18.152542,18.152542 0 0 1 -18.10787,18.15249 18.152542,18.152542 0 0 1 -18.19699,-18.06315 18.152542,18.152542 0 0 1 18.01831,-18.24139 18.152542,18.152542 0 0 1 18.28567,17.97336"
     id="path943" />
  <path
     style="fill:#ffffff;fill-opacity:1;stroke:#000000;stroke-width:1.75862074;stroke-miterlimit:4;stroke-dasharray:none;stroke-opacity:1"
     d="m 326.07705,237.64523 a 11.669492,11.669492 0 0 1 -11.64077,11.66946 11.669492,11.669492 0 0 1 -11.69807,-11.61202 11.669492,11.669492 0 0 1 11.5832,-11.72661 11.669492,11.669492 0 0 1 11.75508,11.55431"
     id="path945" />
  <g
     aria-label="0"
     style="font-style:normal;font-variant:normal;font-weight:500;font-stretch:normal;font-size:46.89654922px;line-height:1.25;font-family:'Gill Sans Nova';-inkscape-font-specification:'Gill Sans Nova Medium';letter-spacing:0px;word-spacing:0px;fill:#000000;fill-opacity:1;stroke:none;stroke-width:0.87931037"
     id="text949">
    <path
       d="m 298.10874,209.59256 q 0,4.96902 -1.39683,8.72441 -1.37392,3.73248 -3.73249,5.74757 -2.33566,2.01509 -5.198,2.01509 -3.04553,0 -5.4041,-2.06089 -2.33566,-2.06088 -3.64089,-5.77047 -1.28233,-3.73249 -1.28233,-8.56412 0,-5.2209 1.51132,-8.93049 1.51131,-3.73249 3.91568,-5.61018 2.40436,-1.8777 5.08351,-1.8777 2.95393,0 5.2438,2.12958 2.31277,2.12958 3.5951,5.83917 1.30523,3.70959 1.30523,8.35803 z m -10.37312,12.2737 q 2.63335,0 4.19046,-3.20581 1.58002,-3.20582 1.58002,-8.9305 0,-3.89278 -0.75566,-6.66352 -0.75566,-2.77075 -2.06089,-4.16757 -1.30522,-1.41972 -2.95393,-1.41972 -1.60291,0 -2.88524,1.44262 -1.28232,1.41972 -2.03798,4.14467 -0.75566,2.72494 -0.75566,6.52613 0,5.74757 1.53422,9.02209 1.55711,3.25161 4.14466,3.25161 z"
       style="stroke-width:0.87931037"
       id="path1036" />
  </g>
  <path
     style="fill:#000000;fill-opacity:1;stroke:#000000;stroke-width:2;stroke-miterlimit:4;stroke-dasharray:none;stroke-opacity:1"
     d="m 19.1695,269.84744 h 306.71183 c 1e-5,0 1e-5,10e-6 1e-5,10e-6 v 58.98303 c 0,10e-6 0,10e-6 -1e-5,10e-6 H 19.1695 c -5e-6,0 -9e-6,0 -9e-6,-10e-6 v -58.98303 c 0,0 4e-6,-10e-6 9e-6,-10e-6 z"
     id="rect951" />
  <path
     style="fill:#000000;fill-opacity:1;stroke:#000000;stroke-width:2.20586491;stroke-miterlimit:4;stroke-dasharray:none;stroke-opacity:1"
     d="m 252.15379,85.950394 h 74.9975 c 10e-6,0 2e-5,5e-6 2e-5,1.3e-5 V 149.1513 c 0,0 -1e-5,1e-5 -2e-5,1e-5 h -74.9975 c -10e-6,0 -10e-6,-1e-5 -10e-6,-1e-5 V 85.950407 c 0,-8e-6 0,-1.3e-5 10e-6,-1.3e-5 z"
     id="rect953" />
  <path
     style="fill:#000000;fill-opacity:1;stroke:#000000;stroke-width:2;stroke-miterlimit:4;stroke-dasharray:none;stroke-opacity:1"
     d="M 4.4237386,44.237289 H 17.694906 c 5e-6,0 10e-6,5e-6 10e-6,1e-5 v 10.322015 c 0,5e-6 -5e-6,9e-6 -10e-6,9e-6 H 4.4237386 c -5.4e-6,0 -9.7e-6,-4e-6 -9.7e-6,-9e-6 V 44.237299 c 0,-5e-6 4.3e-6,-1e-5 9.7e-6,-1e-5 z"
     id="rect955" />
  <path
     style="fill:#000000;fill-opacity:1;stroke:#000000;stroke-width:2.6262517;stroke-miterlimit:4;stroke-dasharray:none;stroke-opacity:1"
     d="m 74.736864,44.550415 h 22.96695 c 5e-6,0 9e-6,4e-6 9e-6,10e-6 v 10.284502 c 0,5e-6 -4e-6,9e-6 -9e-6,9e-6 h -22.96695 c -5e-6,0 -9e-6,-4e-6 -9e-6,-9e-6 V 44.550425 c 0,-6e-6 4e-6,-10e-6 9e-6,-10e-6 z"
     id="rect963" />
  <path
     style="fill:#000000;fill-opacity:1;stroke:#000000;stroke-width:2.6262517;stroke-miterlimit:4;stroke-dasharray:none;stroke-opacity:1"
     d="m 74.736864,126.25241 h 22.96695 c 5e-6,0 9e-6,1e-5 9e-6,1e-5 v 10.2845 c 0,1e-5 -4e-6,1e-5 -9e-6,1e-5 h -22.96695 c -5e-6,0 -9e-6,0 -9e-6,-1e-5 v -10.2845 c 0,0 4e-6,-1e-5 9e-6,-1e-5 z"
     id="rect965" />
  <path
     style="fill:#000000;fill-opacity:1;stroke:#000000;stroke-width:2.6262517;stroke-miterlimit:4;stroke-dasharray:none;stroke-opacity:1"
     d="m 74.736864,205.96167 h 22.96695 c 5e-6,0 9e-6,0 9e-6,1e-5 v 10.2845 c 0,1e-5 -4e-6,1e-5 -9e-6,1e-5 h -22.96695 c -5e-6,0 -9e-6,0 -9e-6,-1e-5 v -10.2845 c 0,-1e-5 4e-6,-1e-5 9e-6,-1e-5 z"
     id="rect967" />
  <path
     style="fill:#000000;fill-opacity:1;stroke:#000000;stroke-width:2.6262517;stroke-miterlimit:4;stroke-dasharray:none;stroke-opacity:1"
     d="m 154.73686,44.550415 h 22.96695 c 0,0 1e-5,4e-6 1e-5,10e-6 v 10.284502 c 0,5e-6 -1e-5,9e-6 -1e-5,9e-6 h -22.96695 c -1e-5,0 -1e-5,-4e-6 -1e-5,-9e-6 V 44.550425 c 0,-6e-6 0,-10e-6 1e-5,-10e-6 z"
     id="rect969" />
  <path
     style="fill:#000000;fill-opacity:1;stroke:#000000;stroke-width:2.6262517;stroke-miterlimit:4;stroke-dasharray:none;stroke-opacity:1"
     d="m 154.73686,126.25241 h 22.96695 c 0,0 1e-5,1e-5 1e-5,1e-5 v 10.2845 c 0,1e-5 -1e-5,1e-5 -1e-5,1e-5 h -22.96695 c -1e-5,0 -1e-5,0 -1e-5,-1e-5 v -10.2845 c 0,0 0,-1e-5 1e-5,-1e-5 z"
     id="rect971" />
  <path
     style="fill:#000000;fill-opacity:1;stroke:#000000;stroke-width:2.6262517;stroke-miterlimit:4;stroke-dasharray:none;stroke-opacity:1"
     d="m 154.73686,205.96167 h 22.96695 c 0,0 1e-5,0 1e-5,1e-5 v 10.2845 c 0,1e-5 -1e-5,1e-5 -1e-5,1e-5 h -22.96695 c -1e-5,0 -1e-5,0 -1e-5,-1e-5 v -10.2845 c 0,-1e-5 0,-1e-5 1e-5,-1e-5 z"
     id="rect973" />
  <path
     style="fill:#000000;fill-opacity:1;stroke:#000000;stroke-width:2.6262517;stroke-miterlimit:4;stroke-dasharray:none;stroke-opacity:1"
     d="m 234.73686,205.96167 h 22.96695 c 0,0 1e-5,0 1e-5,1e-5 v 10.2845 c 0,1e-5 -1e-5,1e-5 -1e-5,1e-5 h -22.96695 c -1e-5,0 -1e-5,0 -1e-5,-1e-5 v -10.2845 c 0,-1e-5 0,-1e-5 1e-5,-1e-5 z"
     id="rect975" />
  <path
     style="fill:#000000;fill-opacity:1;stroke:#000000;stroke-width:2.6262517;stroke-miterlimit:4;stroke-dasharray:none;stroke-opacity:1"
     d="m 316.73686,205.96167 h 22.96695 c 0,0 1e-5,0 1e-5,1e-5 v 10.2845 c 0,1e-5 -1e-5,1e-5 -1e-5,1e-5 h -22.96695 c -10e-6,0 -10e-6,0 -10e-6,-1e-5 v -10.2845 c 0,-1e-5 0,-1e-5 10e-6,-1e-5 z"
     id="rect977" />
  <path
     style="fill:#000000;fill-opacity:1;stroke:#000000;stroke-width:2;stroke-miterlimit:4;stroke-dasharray:none;stroke-opacity:1"
     d="m 325.88136,110.59322 h 13.27116 c 1e-5,0 1e-5,1e-5 1e-5,1e-5 v 10.32202 c 0,0 0,1e-5 -1e-5,1e-5 h -13.27116 c -10e-6,0 -10e-6,-1e-5 -10e-6,-1e-5 v -10.32202 c 0,0 0,-1e-5 10e-6,-1e-5 z"
     id="rect979" />
  <path
     style="fill:#000000;fill-opacity:1;stroke:#000000;stroke-width:2;stroke-miterlimit:4;stroke-dasharray:none;stroke-opacity:1"
     d="m 325.88136,296.38983 h 13.27116 c 1e-5,0 1e-5,10e-6 1e-5,10e-6 v 10.32202 c 0,0 0,10e-6 -1e-5,10e-6 h -13.27116 c -10e-6,0 -10e-6,-10e-6 -10e-6,-10e-6 v -10.32202 c 0,0 0,-10e-6 10e-6,-10e-6 z"
     id="rect981" />
  <path
     transform="rotate(90)"
     style="fill:#000000;fill-opacity:1;stroke:#000000;stroke-width:2.47849154;stroke-miterlimit:4;stroke-dasharray:none;stroke-opacity:1"
     d="m 80.898035,-51.097504 h 20.165555 c 10e-6,0 10e-6,5e-6 10e-6,1e-5 v 10.432261 c 0,6e-6 0,1e-5 -10e-6,1e-5 H 80.898035 c -5e-6,0 -9e-6,-4e-6 -9e-6,-1e-5 v -10.432261 c 0,-5e-6 4e-6,-1e-5 9e-6,-1e-5 z"
     id="rect983" />
  <path
     transform="rotate(90)"
     style="fill:#000000;fill-opacity:1;stroke:#000000;stroke-width:2.47849154;stroke-miterlimit:4;stroke-dasharray:none;stroke-opacity:1"
     d="m 80.898035,-131.0975 h 20.165555 c 10e-6,0 10e-6,0 10e-6,1e-5 v 10.43226 c 0,0 0,10e-6 -10e-6,10e-6 H 80.898035 c -5e-6,0 -9e-6,-10e-6 -9e-6,-10e-6 v -10.43226 c 0,-1e-5 4e-6,-1e-5 9e-6,-1e-5 z"
     id="rect985" />
  <path
     transform="rotate(90)"
     style="fill:#000000;fill-opacity:1;stroke:#000000;stroke-width:2.47849154;stroke-miterlimit:4;stroke-dasharray:none;stroke-opacity:1"
     d="m 80.898035,-211.0975 h 20.165555 c 10e-6,0 10e-6,0 10e-6,1e-5 v 10.43226 c 0,0 0,1e-5 -10e-6,1e-5 H 80.898035 c -5e-6,0 -9e-6,-1e-5 -9e-6,-1e-5 v -10.43226 c 0,-1e-5 4e-6,-1e-5 9e-6,-1e-5 z"
     id="rect987" />
  <path
     transform="rotate(90)"
     style="fill:#000000;fill-opacity:1;stroke:#000000;stroke-width:2.47849154;stroke-miterlimit:4;stroke-dasharray:none;stroke-opacity:1"
     d="m 160.89805,-51.097504 h 20.16556 c 0,0 10e-6,5e-6 10e-6,1e-5 v 10.432261 c 0,6e-6 -10e-6,1e-5 -10e-6,1e-5 h -20.16556 c 0,0 -1e-5,-4e-6 -1e-5,-1e-5 v -10.432261 c 0,-5e-6 1e-5,-1e-5 1e-5,-1e-5 z"
     id="rect989" />
  <path
     transform="rotate(90)"
     style="fill:#000000;fill-opacity:1;stroke:#000000;stroke-width:2.47849154;stroke-miterlimit:4;stroke-dasharray:none;stroke-opacity:1"
     d="m 160.89805,-131.0975 h 20.16556 c 0,0 10e-6,0 10e-6,1e-5 v 10.43226 c 0,0 -10e-6,10e-6 -10e-6,10e-6 h -20.16556 c 0,0 -1e-5,-10e-6 -1e-5,-10e-6 v -10.43226 c 0,-1e-5 1e-5,-1e-5 1e-5,-1e-5 z"
     id="rect991" />
  <path
     transform="rotate(90)"
     style="fill:#000000;fill-opacity:1;stroke:#000000;stroke-width:2.47849154;stroke-miterlimit:4;stroke-dasharray:none;stroke-opacity:1"
     d="m 160.89805,-211.0975 h 20.16556 c 0,0 10e-6,0 10e-6,1e-5 v 10.43226 c 0,0 -10e-6,1e-5 -10e-6,1e-5 h -20.16556 c 0,0 -1e-5,-1e-5 -1e-5,-1e-5 v -10.43226 c 0,-1e-5 1e-5,-1e-5 1e-5,-1e-5 z"
     id="rect993" />
  <g
     aria-label="--0--"
     style="font-style:normal;font-variant:normal;font-weight:500;font-stretch:normal;font-size:53.33333206px;line-height:1.25;font-family:'Gill Sans Nova';-inkscape-font-specification:'Gill Sans Nova Medium';letter-spacing:0px;word-spacing:0px;fill:#ffffff;fill-opacity:1;stroke:none"
     id="text997">
    <path
       d="m 128.94897,308.81391 v -5.07812 h 12.96875 v 5.07812 z"
       style=""
       id="path1006" />
    <path
       d="m 146.24064,308.81391 v -5.07812 h 12.96875 v 5.07812 z"
       style=""
       id="path1008" />
    <path
       d="m 186.47501,299.8035 q 0,5.65104 -1.58854,9.92187 -1.5625,4.24479 -4.24479,6.53646 -2.65625,2.29167 -5.91146,2.29167 -3.46354,0 -6.14584,-2.34375 -2.65625,-2.34375 -4.14062,-6.5625 -1.45833,-4.24479 -1.45833,-9.73959 0,-5.9375 1.71875,-10.15625 1.71875,-4.24479 4.45312,-6.3802 2.73438,-2.13542 5.78125,-2.13542 3.35938,0 5.96354,2.42187 2.63021,2.42188 4.08854,6.64063 1.48438,4.21875 1.48438,9.50521 z m -11.79688,13.95833 q 2.9948,0 4.76563,-3.64583 1.79687,-3.64584 1.79687,-10.15625 0,-4.42709 -0.85937,-7.57813 -0.85938,-3.15104 -2.34375,-4.73958 -1.48438,-1.61458 -3.35938,-1.61458 -1.82291,0 -3.28125,1.64062 -1.45833,1.61458 -2.3177,4.71354 -0.85938,3.09896 -0.85938,7.42188 0,6.53646 1.74479,10.26041 1.77084,3.69792 4.71354,3.69792 z"
       style=""
       id="path1010" />
    <path
       d="m 190.19897,308.81391 v -5.07812 h 12.96875 v 5.07812 z"
       style=""
       id="path1012" />
    <path
       d="m 207.49063,308.81391 v -5.07812 h 12.96875 v 5.07812 z"
       style=""
       id="path1014" />
  </g>
  <g
     aria-label="0"
     style="font-style:normal;font-variant:normal;font-weight:500;font-stretch:normal;font-size:53.33333206px;line-height:1.25;font-family:'Gill Sans Nova';-inkscape-font-specification:'Gill Sans Nova Medium';letter-spacing:0px;word-spacing:0px;fill:#ffffff;fill-opacity:1;stroke:none"
     id="text1001">
    <path
       d="m 300.82388,116.705 q 0,5.65104 -1.58854,9.92188 -1.5625,4.24479 -4.24479,6.53646 -2.65625,2.29166 -5.91146,2.29166 -3.46354,0 -6.14583,-2.34375 -2.65625,-2.34375 -4.14063,-6.5625 -1.45833,-4.24479 -1.45833,-9.73958 0,-5.9375 1.71875,-10.15625 1.71875,-4.24479 4.45312,-6.38021 2.73438,-2.135416 5.78125,-2.135416 3.35938,0 5.96355,2.421876 2.6302,2.42187 4.08854,6.64062 1.48437,4.21875 1.48437,9.50521 z m -11.79687,13.95834 q 2.99479,0 4.76562,-3.64584 1.79688,-3.64583 1.79688,-10.15625 0,-4.42708 -0.85938,-7.57812 -0.85937,-3.15104 -2.34375,-4.73959 -1.48437,-1.61458 -3.35937,-1.61458 -1.82292,0 -3.28125,1.64063 -1.45834,1.61458 -2.31771,4.71354 -0.85938,3.09896 -0.85938,7.42187 0,6.53646 1.7448,10.26042 1.77083,3.69792 4.71354,3.69792 z"
       style=""
       id="path1003" />
  </g>
</svg>
